<svg width="200" height="173" viewBox="0 0 200 173" fill="none" xmlns="http://www.w3.org/2000/svg">
<path d="M11.5521 61.5179C10.5165 66.3637 9.03014 71.3575 7.15788 75.9465C4.79163 77.1329 4.5046 84.0271 3.38255 86.5585C2.55565 88.4241 3.2634 92.4977 3.692 94.3779C4.63838 98.5295 4.05829 103.131 4.80603 107.348C5.58668 111.751 5.72184 114.751 8.27191 118.519C13.8618 126.779 22.544 134.38 29.8718 141.046C34.334 145.105 39.6191 147.978 44.7565 151.068C54.374 156.855 64.6135 161.574 75.2995 165.063C83.1707 167.632 91.3593 170.108 99.7154 169.996C105.978 169.913 112.208 169.411 118.437 168.786C126.925 167.935 134.675 164.045 142.482 160.843C151.192 157.27 159.771 152.436 166.898 146.197C175.187 138.939 180.299 128.929 185.094 119.201C190.385 108.465 194.465 96.1549 196.42 84.3244C197.919 75.247 196.26 65.8727 194.315 56.9876C192.319 47.8706 189.704 37.9798 184.413 30.1473C177.588 20.0451 166.619 12.8639 155.2 9.04735C123.981 -1.38746 90.6592 2.28397 60.9409 15.4394C51.0138 19.8338 40.9648 24.8492 31.976 31.0161C26.0193 35.1028 22.7335 40.5934 18.422 46.2205C14.5313 51.2982 12.8927 55.2449 11.5521 61.5179Z" fill="#CA0000"/>
<path d="M6.04385 79.2977C6.15756 78.0435 6.68873 77.0964 7.15788 75.9465M7.15788 75.9465C9.03014 71.3575 10.5165 66.3637 11.5521 61.5179C12.8927 55.2449 14.5313 51.2982 18.422 46.2205C22.7335 40.5934 26.0193 35.1028 31.976 31.0161C40.9648 24.8492 51.0138 19.8338 60.9409 15.4394C90.6592 2.28397 123.981 -1.38746 155.2 9.04735C166.619 12.8639 177.588 20.0451 184.413 30.1473C189.704 37.9798 192.319 47.8706 194.315 56.9876C196.26 65.8727 197.919 75.247 196.42 84.3244C194.465 96.1549 190.385 108.465 185.094 119.201C180.299 128.929 175.187 138.939 166.898 146.197C159.771 152.436 151.192 157.27 142.482 160.843C134.675 164.045 126.925 167.935 118.437 168.786C112.208 169.411 105.978 169.913 99.7154 169.996C91.3593 170.108 83.1707 167.632 75.2995 165.063C64.6135 161.574 54.374 156.855 44.7565 151.068C39.6191 147.978 34.334 145.105 29.8718 141.046C22.544 134.38 13.8618 126.779 8.27191 118.519C5.72184 114.751 5.58668 111.751 4.80603 107.348C4.05829 103.131 4.63838 98.5296 3.692 94.3779C3.2634 92.4977 2.55565 88.4241 3.38255 86.5586C4.5046 84.0271 4.79163 77.1329 7.15788 75.9465Z" stroke="white" stroke-width="6" stroke-linecap="round"/>
<path d="M53.5 50.0782V82.4347L69.0773 75.7654V58.3735L86.8699 67.8707L103.248 60.1881L68.064 42.207L53.5 50.0782Z" fill="white"/>
<path d="M78.7852 36.9512L96.1535 45.8357L104.449 41.8059L112.344 45.8357L130.725 38.3652L104.449 23L78.7852 36.9512Z" fill="white"/>
<path d="M155 50.0775L141.449 43.2197L123.468 51.4915L135.581 58.5849L53.5 95.3719V115.592L66.65 122.049L84.2304 113.565L72.7065 107.084L155 69.4961V50.0775Z" fill="white"/>
<path d="M155.001 114.578V82.0332L139.824 88.4904V106.684L121.631 96.9742L105.465 104.869L139.824 123.274L155.001 114.578Z" fill="white"/>
<path d="M104.122 124.029L95.2139 120.046L78.9531 127.776L104.122 141.256L130.87 127.776L114.821 120.046L104.122 124.029Z" fill="white"/>
</svg>
