<svg width="173" height="149" viewBox="0 0 173 149" fill="none" xmlns="http://www.w3.org/2000/svg">
<path d="M10.3263 52.9943C9.43912 57.1342 8.16578 61.4006 6.56189 65.3212C4.53482 66.3348 4.28893 72.2248 3.32771 74.3875C2.61935 75.9814 3.22564 79.4616 3.59281 81.068C4.40353 84.6149 3.9066 88.5458 4.54716 92.149C5.2159 95.9107 5.33169 98.4731 7.51623 101.692C12.3048 108.749 19.7426 115.243 26.02 120.938C29.8426 124.406 34.3701 126.86 38.7711 129.501C47.01 134.444 55.7818 138.476 64.9361 141.457C71.679 143.652 78.6939 145.767 85.8522 145.672C91.2175 145.6 96.5539 145.172 101.89 144.638C109.162 143.911 115.801 140.587 122.488 137.852C129.95 134.799 137.3 130.669 143.405 125.339C150.506 119.139 154.885 110.586 158.992 102.276C163.526 93.1035 167.021 82.5861 168.695 72.4788C169.979 64.7236 168.558 56.7147 166.892 49.1239C165.182 41.3348 162.942 32.8847 158.409 26.193C152.562 17.5623 143.166 11.4272 133.384 8.1665C106.639 -0.748387 78.0941 2.38826 52.6356 13.6275C44.1315 17.3818 35.5229 21.6667 27.8226 26.9353C22.7197 30.4268 19.9049 35.1176 16.2114 39.925C12.8784 44.2632 11.4747 47.635 10.3263 52.9943Z" fill="#CA0000"/>
<path d="M5.60754 68.1843C5.70495 67.1128 6.15999 66.3037 6.56189 65.3212M6.56189 65.3212C8.16578 61.4006 9.43912 57.1342 10.3263 52.9943C11.4747 47.635 12.8784 44.2632 16.2114 39.925C19.9049 35.1176 22.7197 30.4268 27.8226 26.9353C35.5229 21.6667 44.1315 17.3818 52.6356 13.6275C78.0941 2.38826 106.639 -0.748387 133.384 8.1665C143.166 11.4272 152.562 17.5623 158.409 26.193C162.942 32.8847 165.182 41.3348 166.892 49.1239C168.558 56.7147 169.979 64.7236 168.695 72.4788C167.021 82.5861 163.526 93.1035 158.992 102.276C154.885 110.586 150.506 119.139 143.405 125.339C137.3 130.669 129.95 134.799 122.488 137.852C115.801 140.587 109.162 143.911 101.89 144.638C96.5539 145.172 91.2175 145.6 85.8522 145.672C78.6939 145.767 71.679 143.652 64.9361 141.457C55.7818 138.476 47.01 134.444 38.7711 129.501C34.3701 126.86 29.8426 124.406 26.02 120.938C19.7426 115.243 12.3048 108.749 7.51623 101.692C5.33169 98.4731 5.2159 95.9107 4.54716 92.149C3.9066 88.5458 4.40353 84.6149 3.59281 81.068C3.22564 79.4616 2.61935 75.9814 3.32771 74.3875C4.28893 72.2248 4.53482 66.3348 6.56189 65.3212Z" stroke="white" stroke-width="6" stroke-linecap="round"/>
<path d="M128.811 33.35C128.467 32.3367 128.056 32.07 127.415 31.8167C126.012 31.2967 123.636 32.0833 123.636 32.0833C123.636 32.0833 39.523 62.3233 34.7177 65.67C33.683 66.39 33.3364 66.8167 33.1644 67.31C32.3337 69.6833 34.9217 70.7367 34.9217 70.7367L56.6017 77.8033C56.6017 77.8033 57.4097 77.9233 57.6977 77.7367C62.6297 74.6167 107.319 46.4033 109.896 45.4567C110.303 45.3367 110.604 45.47 110.524 45.75C109.492 49.3767 70.6777 83.87 70.6777 83.87C70.6777 83.87 70.5297 84.0567 70.4364 84.27L70.3857 84.2433L68.363 105.75C68.363 105.75 67.515 112.337 74.103 105.75C78.751 101.097 83.2484 97.2033 85.499 95.3233C92.9537 100.47 100.976 106.163 104.439 109.137C106.178 110.63 107.632 110.87 108.83 110.83C112.116 110.71 113.034 107.097 113.034 107.097C113.034 107.097 128.362 45.4033 128.874 37.1367C128.924 36.3233 128.994 35.8167 128.999 35.2567C129.008 34.4833 128.936 33.71 128.811 33.35Z" fill="white"/>
</svg>
